<?xml version="1.0" encoding="utf-8"?>
<svg version="1.1" xmlns:xlink="http://www.w3.org/1999/xlink" width="27px" height="30px" xmlns="http://www.w3.org/2000/svg">
  <g transform="matrix(1 0 0 1 -582 -714 )">
    <path d="M 5.712890625 12.1372767857143  C 8.126953125 12.6171875  10.72265625 12.8571428571429  13.5 12.8571428571429  C 16.27734375 12.8571428571429  18.873046875 12.6171875  21.287109375 12.1372767857143  C 23.701171875 11.6573660714286  25.60546875 10.9486607142857  27 10.0111607142857  L 27 12.8571428571429  C 27 13.6272321428571  26.396484375 14.3415178571429  25.189453125 15  C 23.982421875 15.6584821428571  22.341796875 16.1802455357143  20.267578125 16.5652901785714  C 18.193359375 16.9503348214286  15.9375 17.1428571428571  13.5 17.1428571428571  C 11.0625 17.1428571428571  8.806640625 16.9503348214286  6.732421875 16.5652901785714  C 4.658203125 16.1802455357143  3.017578125 15.6584821428571  1.810546875 15  C 0.603515625 14.3415178571429  0 13.6272321428571  0 12.8571428571429  L 0 10.0111607142857  C 1.39453125 10.9486607142857  3.298828125 11.6573660714286  5.712890625 12.1372767857143  Z M 5.712890625 24.9944196428571  C 8.126953125 25.4743303571429  10.72265625 25.7142857142857  13.5 25.7142857142857  C 16.27734375 25.7142857142857  18.873046875 25.4743303571429  21.287109375 24.9944196428571  C 23.701171875 24.5145089285714  25.60546875 23.8058035714286  27 22.8683035714286  L 27 25.7142857142857  C 27 26.484375  26.396484375 27.1986607142857  25.189453125 27.8571428571429  C 23.982421875 28.515625  22.341796875 29.0373883928571  20.267578125 29.4224330357143  C 18.193359375 29.8074776785714  15.9375 30  13.5 30  C 11.0625 30  8.806640625 29.8074776785714  6.732421875 29.4224330357143  C 4.658203125 29.0373883928571  3.017578125 28.515625  1.810546875 27.8571428571429  C 0.603515625 27.1986607142857  0 26.484375  0 25.7142857142857  L 0 22.8683035714286  C 1.39453125 23.8058035714286  3.298828125 24.5145089285714  5.712890625 24.9944196428571  Z M 5.712890625 18.5658482142857  C 8.126953125 19.0457589285714  10.72265625 19.2857142857143  13.5 19.2857142857143  C 16.27734375 19.2857142857143  18.873046875 19.0457589285714  21.287109375 18.5658482142857  C 23.701171875 18.0859375  25.60546875 17.3772321428571  27 16.4397321428571  L 27 19.2857142857143  C 27 20.0558035714286  26.396484375 20.7700892857143  25.189453125 21.4285714285714  C 23.982421875 22.0870535714286  22.341796875 22.6088169642857  20.267578125 22.9938616071429  C 18.193359375 23.37890625  15.9375 23.5714285714286  13.5 23.5714285714286  C 11.0625 23.5714285714286  8.806640625 23.37890625  6.732421875 22.9938616071429  C 4.658203125 22.6088169642857  3.017578125 22.0870535714286  1.810546875 21.4285714285714  C 0.603515625 20.7700892857143  0 20.0558035714286  0 19.2857142857143  L 0 16.4397321428571  C 1.39453125 17.3772321428571  3.298828125 18.0859375  5.712890625 18.5658482142857  Z M 6.732421875 0.577566964285713  C 8.806640625 0.192522321428571  11.0625 0  13.5 0  C 15.9375 0  18.193359375 0.192522321428571  20.267578125 0.577566964285713  C 22.341796875 0.962611607142858  23.982421875 1.484375  25.189453125 2.14285714285714  C 26.396484375 2.80133928571428  27 3.515625  27 4.28571428571429  L 27 6.42857142857143  C 27 7.19866071428571  26.396484375 7.91294642857142  25.189453125 8.57142857142857  C 23.982421875 9.22991071428571  22.341796875 9.75167410714286  20.267578125 10.13671875  C 18.193359375 10.5217633928571  15.9375 10.7142857142857  13.5 10.7142857142857  C 11.0625 10.7142857142857  8.806640625 10.5217633928571  6.732421875 10.13671875  C 4.658203125 9.75167410714286  3.017578125 9.22991071428571  1.810546875 8.57142857142857  C 0.603515625 7.91294642857142  0 7.19866071428571  0 6.42857142857143  L 0 4.28571428571429  C 0 3.515625  0.603515625 2.80133928571428  1.810546875 2.14285714285714  C 3.017578125 1.484375  4.658203125 0.962611607142858  6.732421875 0.577566964285713  Z " fill-rule="nonzero" fill="#000000" stroke="none" transform="matrix(1 0 0 1 582 714 )" />
  </g>
</svg>