<?xml version="1.0" encoding="utf-8"?>
<svg version="1.1" xmlns:xlink="http://www.w3.org/1999/xlink" width="24px" height="27px" xmlns="http://www.w3.org/2000/svg">
  <g transform="matrix(1 0 0 1 -803 -717 )">
    <path d="M 23.703125 22.00078125  C 23.9010416666667 22.26796875  24 22.584375  24 22.95  L 24 25.65  C 24 26.015625  23.9010416666667 26.33203125  23.703125 26.59921875  C 23.5052083333333 26.86640625  23.2708333333333 27  23 27  L 1 27  C 0.729166666666667 27  0.494791666666667 26.86640625  0.296875 26.59921875  C 0.0989583333333333 26.33203125  0 26.015625  0 25.65  L 0 22.95  C 0 22.584375  0.0989583333333333 22.26796875  0.296875 22.00078125  C 0.494791666666667 21.73359375  0.729166666666667 21.6  1 21.6  L 23 21.6  C 23.2708333333333 21.6  23.5052083333333 21.73359375  23.703125 22.00078125  Z M 23.703125 11.20078125  C 23.9010416666667 11.46796875  24 11.784375  24 12.15  L 24 14.85  C 24 15.215625  23.9010416666667 15.53203125  23.703125 15.79921875  C 23.5052083333333 16.06640625  23.2708333333333 16.2  23 16  L 1 16  C 0.729166666666667 16.2  0.494791666666667 16.06640625  0.296875 15.79921875  C 0.0989583333333333 15.53203125  0 15.215625  0 14.85  L 0 12.15  C 0 11.784375  0.0989583333333333 11.46796875  0.296875 11.20078125  C 0.494791666666667 10.93359375  0.729166666666667 10.8  1 11  L 23 11  C 23.2708333333333 10.8  23.5052083333333 10.93359375  23.703125 11.20078125  Z M 23.703125 0.400781250000001  C 23.9010416666667 0.667968749999998  24 0.984374999999998  24 1.35  L 24 4.05  C 24 4.415625  23.9010416666667 4.73203125  23.703125 4.99921875  C 23.5052083333333 5.26640625  23.2708333333333 5.4  23 5.4  L 1 5.4  C 0.729166666666667 5.4  0.494791666666667 5.26640625  0.296875 4.99921875  C 0.0989583333333333 4.73203125  0 4.415625  0 4.05  L 0 1.35  C 0 0.984374999999998  0.0989583333333333 0.667968749999998  0.296875 0.400781250000001  C 0.494791666666667 0.133593749999998  0.729166666666667 0  1 0  L 23 0  C 23.2708333333333 0  23.5052083333333 0.133593749999998  23.703125 0.400781250000001  Z " fill-rule="nonzero" fill="#000000" stroke="none" transform="matrix(1 0 0 1 803 717 )" />
  </g>
</svg>