<?xml version="1.0" encoding="utf-8"?>
<svg version="1.1" xmlns:xlink="http://www.w3.org/1999/xlink" width="27px" height="24px" xmlns="http://www.w3.org/2000/svg">
  <g transform="matrix(1 0 0 1 -922 -646 )">
    <path d="M 1.40625 18.4615384615385  L 3.375 18.4615384615385  L 3.375 20.3076923076923  L 1.40625 20.3076923076923  C 1.21875 20.3076923076923  1.125 20.2307692307692  1.125 20.0769230769231  L 1.125 19.8461538461538  L 0.28125 19.8461538461538  C 0.09375 19.8461538461538  0 19.7692307692308  0 19.6153846153846  L 0 19.1538461538462  C 0 19  0.09375 18.9230769230769  0.28125 18.9230769230769  L 1.125 18.9230769230769  L 1.125 18.6923076923077  C 1.125 18.5384615384615  1.21875 18.4615384615385  1.40625 18.4615384615385  Z M 1.40625 14.7692307692308  L 3.375 14.7692307692308  L 3.375 16.6153846153846  L 1.40625 16.6153846153846  C 1.21875 16.6153846153846  1.125 16.5384615384615  1.125 16.3846153846154  L 1.125 16.1538461538462  L 0.28125 16.1538461538462  C 0.09375 16.1538461538462  0 16.0769230769231  0 15.9230769230769  L 0 15.4615384615385  C 0 15.3076923076923  0.09375 15.2307692307692  0.28125 15.2307692307692  L 1.125 15.2307692307692  L 1.125 15  C 1.125 14.8461538461538  1.21875 14.7692307692308  1.40625 14.7692307692308  Z M 1.40625 11.0769230769231  L 3.375 11.0769230769231  L 3.375 12.9230769230769  L 1.40625 12.9230769230769  C 1.21875 12.9230769230769  1.125 12.8461538461538  1.125 12.6923076923077  L 1.125 12.4615384615385  L 0.28125 12.4615384615385  C 0.09375 12.4615384615385  0 12.3846153846154  0 12.2307692307692  L 0 11.7692307692308  C 0 11.6153846153846  0.09375 11.5384615384615  0.28125 11.5384615384615  L 1.125 11.5384615384615  L 1.125 11.3076923076923  C 1.125 11.1538461538462  1.21875 11.0769230769231  1.40625 11.0769230769231  Z M 1.40625 7.38461538461539  L 3.375 7.38461538461539  L 3.375 9.23076923076923  L 1.40625 9.23076923076923  C 1.21875 9.23076923076923  1.125 9.15384615384615  1.125 9  L 1.125 8.76923076923077  L 0.28125 8.76923076923077  C 0.09375 8.76923076923077  0 8.69230769230769  0 8.53846153846154  L 0 8.07692307692308  C 0 7.92307692307692  0.09375 7.84615384615384  0.28125 7.84615384615384  L 1.125 7.84615384615384  L 1.125 7.61538461538462  C 1.125 7.46153846153846  1.21875 7.38461538461539  1.40625 7.38461538461539  Z M 1.40625 3.69230769230769  L 3.375 3.69230769230769  L 3.375 5.53846153846154  L 1.40625 5.53846153846154  C 1.21875 5.53846153846154  1.125 5.46153846153846  1.125 5.30769230769231  L 1.125 5.07692307692308  L 0.28125 5.07692307692308  C 0.09375 5.07692307692308  0 5  0 4.84615384615384  L 0 4.38461538461539  C 0 4.23076923076923  0.09375 4.15384615384616  0.28125 4.15384615384616  L 1.125 4.15384615384616  L 1.125 3.92307692307692  C 1.125 3.76923076923077  1.21875 3.69230769230769  1.40625 3.69230769230769  Z M 22.0078125 0.403846153846155  C 22.3359375 0.673076923076921  22.5 0.999999999999999  22 1.38461538461539  L 22 22.6153846153846  C 22.5 23  22.3359375 23.3269230769231  22.0078125 23.5961538461538  C 21.6796875 23.8653846153846  21.28125 24  20.8125 24  L 6.1875 24  C 5.71875 24  5.3203125 23.8653846153846  4.9921875 23.5961538461538  C 4.6640625 23.3269230769231  4.5 23  5 22.6153846153846  L 5 1.38461538461539  C 4.5 0.999999999999999  4.6640625 0.673076923076921  4.9921875 0.403846153846155  C 5.3203125 0.134615384615387  5.71875 0  6.1875 0  L 20.8125 0  C 21.28125 0  21.6796875 0.134615384615387  22.0078125 0.403846153846155  Z M 26.71875 18.9230769230769  C 26.90625 18.9230769230769  27 19  27 19.1538461538462  L 27 19.6153846153846  C 27 19.7692307692308  26.90625 19.8461538461538  26.71875 19.8461538461538  L 25.875 19.8461538461538  L 25.875 20.0769230769231  C 25.875 20.2307692307692  25.78125 20.3076923076923  25.59375 20.3076923076923  L 23.625 20.3076923076923  L 23.625 18.4615384615385  L 25.59375 18.4615384615385  C 25.78125 18.4615384615385  25.875 18.5384615384615  25.875 18.6923076923077  L 25.875 18.9230769230769  L 26.71875 18.9230769230769  Z M 26.71875 15.2307692307692  C 26.90625 15.2307692307692  27 15.3076923076923  27 15.4615384615385  L 27 15.9230769230769  C 27 16.0769230769231  26.90625 16.1538461538462  26.71875 16.1538461538462  L 25.875 16.1538461538462  L 25.875 16.3846153846154  C 25.875 16.5384615384615  25.78125 16.6153846153846  25.59375 16.6153846153846  L 23.625 16.6153846153846  L 23.625 14.7692307692308  L 25.59375 14.7692307692308  C 25.78125 14.7692307692308  25.875 14.8461538461538  25.875 15  L 25.875 15.2307692307692  L 26.71875 15.2307692307692  Z M 26.71875 11.5384615384615  C 26.90625 11.5384615384615  27 11.6153846153846  27 11.7692307692308  L 27 12.2307692307692  C 27 12.3846153846154  26.90625 12.4615384615385  26.71875 12.4615384615385  L 25.875 12.4615384615385  L 25.875 12.6923076923077  C 25.875 12.8461538461538  25.78125 12.9230769230769  25.59375 12.9230769230769  L 23.625 12.9230769230769  L 23.625 11.0769230769231  L 25.59375 11.0769230769231  C 25.78125 11.0769230769231  25.875 11.1538461538462  25.875 11.3076923076923  L 25.875 11.5384615384615  L 26.71875 11.5384615384615  Z M 26.71875 7.84615384615384  C 26.90625 7.84615384615384  27 7.92307692307692  27 8.07692307692308  L 27 8.53846153846154  C 27 8.69230769230769  26.90625 8.76923076923077  26.71875 8.76923076923077  L 25.875 8.76923076923077  L 25.875 9  C 25.875 9.15384615384615  25.78125 9.23076923076923  25.59375 9.23076923076923  L 23.625 9.23076923076923  L 23.625 7.38461538461539  L 25.59375 7.38461538461539  C 25.78125 7.38461538461539  25.875 7.46153846153846  25.875 7.61538461538462  L 25.875 7.84615384615384  L 26.71875 7.84615384615384  Z M 26.71875 4.15384615384616  C 26.90625 4.15384615384616  27 4.23076923076923  27 4.38461538461539  L 27 4.84615384615384  C 27 5  26.90625 5.07692307692308  26.71875 5.07692307692308  L 25.875 5.07692307692308  L 25.875 5.30769230769231  C 25.875 5.46153846153846  25.78125 5.53846153846154  25.59375 5.53846153846154  L 23.625 5.53846153846154  L 23.625 3.69230769230769  L 25.59375 3.69230769230769  C 25.78125 3.69230769230769  25.875 3.76923076923077  25.875 3.92307692307692  L 25.875 4.15384615384616  L 26.71875 4.15384615384616  Z " fill-rule="nonzero" fill="#000000" stroke="none" transform="matrix(1 0 0 1 922 646 )" />
  </g>
</svg>