<?xml version="1.0" encoding="utf-8"?>
<svg version="1.1" xmlns:xlink="http://www.w3.org/1999/xlink" width="29px" height="28px" xmlns="http://www.w3.org/2000/svg">
  <g transform="matrix(1 0 0 1 -1171 -545 )">
    <path d="M 4.14285714285714 3.92  C 6.84002976190476 3.92  9.05171130952381 5.2325  10.7779017857143 7.8575  C 10.1305803571429 8.93083333333333  9.39155505952381 10.5233333333333  8.56082589285714 12.635  C 8.32347470238095 12.11  8.12388392857143 11.6870833333333  7.96205357142857 11.36625  C 7.80022321428571 11.0454166666667  7.58175223214286 10.675  7.306640625 10.255  C 7.03152901785714 9.835  6.75641741071429 9.50541666666666  6.48130580357143 9.26625  C 6.20619419642857 9.02708333333333  5.86635044642857 8.82291666666666  5.46177455357143 8.65375  C 5.05719866071429 8.48458333333333  4.61755952380952 8.4  4.14285714285714 8.4  L 0.517857142857143 8.4  C 0.366815476190476 8.4  0.242745535714286 8.3475  0.145647321428571 8.2425  C 0.0485491071428571 8.1375  0 8.00333333333333  0 7.84  L 0 4.48  C 0 4.31666666666666  0.0485491071428571 4.1825  0.145647321428571 4.0775  C 0.242745535714286 3.9725  0.366815476190476 3.92  0.517857142857143 3.92  L 4.14285714285714 3.92  Z M 28.8543526785714 21.4375  C 28.9514508928571 21.5425  29 21.6766666666667  29 21.84  C 29 22.0033333333333  28.9514508928571 22.1375  28.8543526785714 22.2425  L 23.67578125 27.8425  C 23.5786830357143 27.9475  23.4546130952381 28  23.3035714285714 28  C 23.163318452381 28  23.0419456845238 27.9445833333333  22.939453125 27.83375  C 22.8369605654762 27.7229166666667  22.7857142857143 27.5916666666667  22.7857142857143 27.44  L 22.7857142857143 24.08  C 22.4404761904762 24.08  21.9819568452381 24.0829166666667  21.41015625 24.08875  C 20.8383556547619 24.0945833333333  20.4014136904762 24.1004166666667  20.0993303571429 24.10625  C 19.7972470238095 24.1120833333333  19.4034598214286 24.10625  18.91796875 24.08875  C 18.4324776785714 24.07125  18.0494791666667 24.0420833333333  17.7689732142857 24.00125  C 17.4884672619048 23.9604166666667  17.1432291666667 23.8991666666667  16.7332589285714 23.8175  C 16.3232886904762 23.7358333333333  15.9834449404762 23.6279166666667  15.7137276785714 23.49375  C 15.4440104166667 23.3595833333333  15.1311383928571 23.1933333333333  14.7751116071429 22.995  C 14.4190848214286 22.7966666666667  14.100818452381 22.5633333333333  13.8203125 22.295  C 13.539806547619 22.0266666666667  13.2431175595238 21.7145833333333  12.9302455357143 21.35875  C 12.6173735119048 21.0029166666667  12.3152901785714 20.5975  12.0239955357143 20.1425  C 12.6605282738095 19.0575  13.3941592261905 17.465  14.2248883928571 15.365  C 14.4622395833333 15.89  14.6618303571429 16.3129166666667  14.8236607142857 16.63375  C 14.9854910714286 16.9545833333333  15.2039620535714 17.325  15.4790736607143 17.745  C 15.7541852678571 18.165  16.029296875 18.4945833333333  16.3044084821429 18.73375  C 16.5795200892857 18.9729166666667  16.9193638392857 19.1770833333333  17.3239397321429 19.34625  C 17.728515625 19.5154166666667  18.1681547619048 19.6  18.6428571428571 19.6  L 22.7857142857143 19.6  L 22.7857142857143 16.24  C 22.7857142857143 16.0766666666667  22.8342633928571 15.9425  22.9313616071429 15.8375  C 23.0284598214286 15.7325  23.1525297619048 15.68  23.3035714285714 15.68  C 23.4330357142857 15.68  23.5625 15.7383333333333  23.6919642857143 15.855  L 28.8543526785714 21.4375  Z M 28.8543526785714 5.7575  C 28.9514508928571 5.8625  29 5.99666666666667  29 6.16  C 29 6.32333333333333  28.9514508928571 6.4575  28.8543526785714 6.5625  L 23.67578125 12.1625  C 23.5786830357143 12.2675  23.4546130952381 12.32  23.3035714285714 12.32  C 23.163318452381 12.32  23.0419456845238 12.2645833333333  22.939453125 12.15375  C 22.8369605654762 12.0429166666667  22.7857142857143 11.9116666666667  22.7857142857143 11.76  L 22.7857142857143 8.4  L 18.6428571428571 8.4  C 18.125 8.4  17.6556919642857 8.4875  17.2349330357143 8.6625  C 16.8141741071429 8.8375  16.4419642857143 9.1  16.1183035714286 9.45  C 15.7946428571429 9.8  15.51953125 10.15875  15.29296875 10.52625  C 15.06640625 10.89375  14.8236607142857 11.3458333333333  14.5647321428571 11.8825  C 14.219494047619 12.6058333333333  13.7987351190476 13.6033333333333  13.3024553571429 14.875  C 12.9895833333333 15.645  12.7225632440476 16.2925  12.5013950892857 16.8175  C 12.2802269345238 17.3425  11.9889322916667 17.955  11.6275111607143 18.655  C 11.2660900297619 19.355  10.9208519345238 19.9383333333333  10.591796875 20.405  C 10.2627418154762 20.8716666666667  9.86356026785714 21.3558333333333  9.39425223214286 21.8575  C 8.92494419642857 22.3591666666667  8.439453125 22.75875  7.93777901785714 23.05625  C 7.43610491071429 23.35375  6.86160714285714 23.59875  6.21428571428571 23.79125  C 5.56696428571429 23.98375  4.8764880952381 24.08  4.14285714285714 24.08  L 0.517857142857143 24.08  C 0.366815476190476 24.08  0.242745535714286 24.0275  0.145647321428571 23.9225  C 0.0485491071428571 23.8175  0 23.6833333333333  0 23.52  L 0 20.16  C 0 19.9966666666667  0.0485491071428571 19.8625  0.145647321428571 19.7575  C 0.242745535714286 19.6525  0.366815476190476 19.6  0.517857142857143 19.6  L 4.14285714285714 19.6  C 4.66071428571429 19.6  5.13002232142857 19.5125  5.55078125 19.3375  C 5.97154017857143 19.1625  6.34375 18.9  6.66741071428571 18.55  C 6.99107142857143 18.2  7.26618303571429 17.84125  7.49274553571429 17.47375  C 7.71930803571429 17.10625  7.96205357142857 16.6541666666667  8.22098214285714 16.1175  C 8.56622023809524 15.3941666666667  8.98697916666667 14.3966666666667  9.48325892857143 13.125  C 9.79613095238095 12.355  10.0631510416667 11.7075  10.2843191964286 11.1825  C 10.5054873511905 10.6575  10.7967819940476 10.045  11.158203125 9.345  C 11.5196242559524 8.645  11.8648623511905 8.06166666666666  12.1939174107143 7.595  C 12.5229724702381 7.12833333333333  12.9221540178571 6.64416666666666  13.3914620535714 6.1425  C 13.8607700892857 5.64083333333333  14.3462611607143 5.24125  14.8479352678571 4.94375  C 15.349609375 4.64625  15.9241071428571 4.40125  16.5714285714286 4.20875  C 17.21875 4.01625  17.9092261904762 3.92  18.6428571428571 3.92  L 22.7857142857143 3.92  L 22.7857142857143 0.560000000000001  C 22.7857142857143 0.396666666666663  22.8342633928571 0.262500000000001  22.9313616071429 0.1575  C 23.0284598214286 0.0524999999999989  23.1525297619048 0  23.3035714285714 0  C 23.4330357142857 0  23.5625 0.0583333333333331  23.6919642857143 0.174999999999999  L 28.8543526785714 5.7575  Z " fill-rule="nonzero" fill="#000000" stroke="none" transform="matrix(1 0 0 1 1171 545 )" />
  </g>
</svg>