<?xml version="1.0" encoding="utf-8"?>
<svg version="1.1" xmlns:xlink="http://www.w3.org/1999/xlink" width="38px" height="32px" xmlns="http://www.w3.org/2000/svg">
  <g transform="matrix(1 0 0 1 -1313 -487 )">
    <path d="M 10.1333333333333 11.4285714285714  C 10.1333333333333 13.0833333333333  10.6677083333333 14.6071428571429  11.7364583333333 16  C 9.59895833333333 16.0595238095238  7.85069444444444 16.8214285714286  6.49166666666667 18.2857142857143  L 3.83958333333333 18.2857142857143  C 2.75763888888889 18.2857142857143  1.84722222222222 18.0446428571429  1.10833333333333 17.5625  C 0.369444444444444 17.0803571428571  0 16.375  0 15.4464285714286  C 0 11.2440476190476  0.818055555555555 9.14285714285714  2.45416666666667 9.14285714285714  C 2.53333333333333 9.14285714285714  2.8203125 9.26785714285714  3.31510416666667 9.51785714285714  C 3.80989583333333 9.76785714285714  4.453125 10.0208333333333  5.24479166666667 10.2767857142857  C 6.03645833333333 10.5327380952381  6.82152777777778 10.6607142857143  7.6 10.6607142857143  C 8.48402777777778 10.6607142857143  9.36145833333333 10.5238095238095  10.2322916666667 10.25  C 10.1663194444444 10.6904761904762  10.1333333333333 11.0833333333333  10.1333333333333 11.4285714285714  Z M 32.8640625 25.5267857142857  C 32.9102430555556 26.1279761904762  32.9333333333333 26.7440476190476  32.9333333333333 27.375  C 32.9333333333333 28.8035714285714  32.4517361111111 29.9315476190476  31.4885416666667 30.7589285714286  C 30.5253472222222 31.5863095238095  29.2454861111111 32  27.6489583333333 32  L 10.3510416666667 32  C 8.75451388888889 32  7.47465277777778 31.5863095238095  6.51145833333333 30.7589285714286  C 5.54826388888889 29.9315476190476  5.06666666666667 28.8035714285714  5.06666666666667 27.375  C 5.06666666666667 26.7440476190476  5.08975694444444 26.1279761904762  5.1359375 25.5267857142857  C 5.18211805555556 24.9255952380952  5.27447916666667 24.2767857142857  5.41302083333333 23.5803571428571  C 5.5515625 22.8839285714286  5.72638888888889 22.2380952380952  5.9375 21.6428571428571  C 6.14861111111111 21.047619047619  6.43229166666667 20.4672619047619  6.78854166666667 19.9017857142857  C 7.14479166666667 19.3363095238095  7.55381944444444 18.8541666666667  8.015625 18.4553571428571  C 8.47743055555556 18.0565476190476  9.04149305555556 17.7380952380952  9.7078125 17.5  C 10.3741319444444 17.2619047619048  11.1097222222222 17.1428571428571  11.9145833333333 17.1428571428571  C 12.0465277777778 17.1428571428571  12.3302083333333 17.2708333333333  12.765625 17.5267857142857  C 13.2010416666667 17.7827380952381  13.6826388888889 18.0684523809524  14.2104166666667 18.3839285714286  C 14.7381944444444 18.6994047619048  15.4440972222222 18.985119047619  16.328125 19.2410714285714  C 17.2121527777778 19.4970238095238  18.1027777777778 19.625  19 19.625  C 19.8972222222222 19.625  20.7878472222222 19.4970238095238  21.671875 19.2410714285714  C 22.5559027777778 18.985119047619  23.2618055555556 18.6994047619048  23.7895833333333 18.3839285714286  C 24.3173611111111 18.0684523809524  24.7989583333333 17.7827380952381  25.234375 17.5267857142857  C 25.6697916666667 17.2708333333333  25.9534722222222 17.1428571428571  26.0854166666667 17.1428571428571  C 26.8902777777778 17.1428571428571  27.6258680555556 17.2619047619048  28.2921875 17.5  C 28.9585069444444 17.7380952380952  29.5225694444444 18.0565476190476  29.984375 18.4553571428571  C 30.4461805555556 18.8541666666667  30.8552083333333 19.3363095238095  31.2114583333333 19.9017857142857  C 31.5677083333333 20.4672619047619  31.8513888888889 21.047619047619  32.0625 21.6428571428571  C 32.2736111111111 22.2380952380952  32.4484375 22.8839285714286  32.5869791666667 23.5803571428571  C 32.7255208333333 24.2767857142857  32.8178819444444 24.9255952380952  32.8640625 25.5267857142857  Z M 11.1822916666667 1.33928571428572  C 12.171875 2.23214285714286  12.6666666666667 3.30952380952381  12.6666666666667 4.57142857142857  C 12.6666666666667 5.83333333333333  12.171875 6.91071428571428  11.1822916666667 7.80357142857143  C 10.1927083333333 8.69642857142857  8.99861111111111 9.14285714285714  7.6 9.14285714285714  C 6.20138888888889 9.14285714285714  5.00729166666667 8.69642857142857  4.01770833333333 7.80357142857143  C 3.028125 6.91071428571428  2.53333333333333 5.83333333333333  2.53333333333333 4.57142857142857  C 2.53333333333333 3.30952380952381  3.028125 2.23214285714286  4.01770833333333 1.33928571428572  C 5.00729166666667 0.446428571428573  6.20138888888889 0  7.6 0  C 8.99861111111111 0  10.1927083333333 0.446428571428573  11.1822916666667 1.33928571428572  Z M 24.3734375 6.58035714285714  C 25.8578125 7.91964285714286  26.6 9.53571428571428  26.6 11.4285714285714  C 26.6 13.3214285714286  25.8578125 14.9375  24.3734375 16.2767857142857  C 22.8890625 17.6160714285714  21.0979166666667 18.2857142857143  19 18.2857142857143  C 16.9020833333333 18.2857142857143  15.1109375 17.6160714285714  13.6265625 16.2767857142857  C 12.1421875 14.9375  11.4 13.3214285714286  11.4 11.4285714285714  C 11.4 9.53571428571428  12.1421875 7.91964285714286  13.6265625 6.58035714285714  C 15.1109375 5.24107142857143  16.9020833333333 4.57142857142857  19 4.57142857142857  C 21.0979166666667 4.57142857142857  22.8890625 5.24107142857143  24.3734375 6.58035714285714  Z M 35.5458333333333 9.14285714285714  C 37.1819444444445 9.14285714285714  38 11.2440476190476  38 15.4464285714286  C 38 16.375  37.6305555555556 17.0803571428571  36.8916666666667 17.5625  C 36.1527777777778 18.0446428571429  35.2423611111111 18.2857142857143  34.1604166666667 18.2857142857143  L 31.5083333333333 18.2857142857143  C 30.1493055555556 16.8214285714286  28.4010416666667 16.0595238095238  26.2635416666667 16  C 27.3322916666667 14.6071428571429  27.8666666666667 13.0833333333333  27.8666666666667 11.4285714285714  C 27.8666666666667 11.0833333333333  27.8336805555556 10.6904761904762  27.7677083333333 10.25  C 28.6385416666667 10.5238095238095  29.5159722222222 10.6607142857143  30.4 10.6607142857143  C 31.1784722222222 10.6607142857143  31.9635416666667 10.5327380952381  32.7552083333333 10.2767857142857  C 33.546875 10.0208333333333  34.1901041666667 9.76785714285714  34.6848958333333 9.51785714285714  C 35.1796875 9.26785714285714  35.4666666666667 9.14285714285714  35.5458333333333 9.14285714285714  Z M 33.9822916666667 1.33928571428572  C 34.971875 2.23214285714286  35.4666666666667 3.30952380952381  35.4666666666667 4.57142857142857  C 35.4666666666667 5.83333333333333  34.971875 6.91071428571428  33.9822916666667 7.80357142857143  C 32.9927083333333 8.69642857142857  31.7986111111111 9.14285714285714  30.4 9.14285714285714  C 29.0013888888889 9.14285714285714  27.8072916666667 8.69642857142857  26.8177083333333 7.80357142857143  C 25.828125 6.91071428571428  25.3333333333333 5.83333333333333  25.3333333333333 4.57142857142857  C 25.3333333333333 3.30952380952381  25.828125 2.23214285714286  26.8177083333333 1.33928571428572  C 27.8072916666667 0.446428571428573  29.0013888888889 0  30.4 0  C 31.7986111111111 0  32.9927083333333 0.446428571428573  33.9822916666667 1.33928571428572  Z " fill-rule="nonzero" fill="#000000" stroke="none" transform="matrix(1 0 0 1 1313 487 )" />
  </g>
</svg>