<?xml version="1.0" encoding="utf-8"?>
<svg version="1.1" xmlns:xlink="http://www.w3.org/1999/xlink" width="15px" height="39px" xmlns="http://www.w3.org/2000/svg">
  <g transform="matrix(1 0 0 1 -1229 -540 )">
    <path d="M 15 2.78571428571428  L 13.9285714285714 2.78571428571428  C 10.3571428571429 2.78571428571428  8.57142857142857 4.41071428571428  8.57142857142857 7.66071428571428  L 8.57142857142857 16.7142857142857  L 10.7142857142857 16.7142857142857  L 10.7142857142857 19.5  L 8.57142857142857 19.5  L 8.57142857142857 31.3392857142857  C 8.57142857142857 34.5892857142857  10.3571428571429 36.2142857142857  13.9285714285714 36.2142857142857  L 15 36.2142857142857  L 15 39  L 13.9285714285714 39  C 10.8928571428571 39  8.75 37.9408482142857  7.5 35.8225446428571  C 6.25 37.9408482142857  4.10714285714286 39  1.07142857142857 39  L 0 39  L 0 36.2142857142857  L 1.07142857142857 36.2142857142857  C 4.64285714285714 36.2142857142857  6.42857142857143 34.5892857142857  6.42857142857143 31.3392857142857  L 6.42857142857143 19.5  L 4.28571428571429 19.5  L 4.28571428571429 16.7142857142857  L 6.42857142857143 16.7142857142857  L 6.42857142857143 7.66071428571428  C 6.42857142857143 4.41071428571428  4.64285714285714 2.78571428571428  1.07142857142857 2.78571428571428  L 0 2.78571428571428  L 0 0  L 1.07142857142857 0  C 4.10714285714286 0  6.25 1.05915178571429  7.5 3.17745535714286  C 8.75 1.05915178571429  10.8928571428571 0  13.9285714285714 0  L 15 0  L 15 2.78571428571428  Z " fill-rule="nonzero" fill="#000000" stroke="none" transform="matrix(1 0 0 1 1229 540 )" />
  </g>
</svg>