<?xml version="1.0" encoding="utf-8"?>
<svg version="1.1" xmlns:xlink="http://www.w3.org/1999/xlink" width="29px" height="24px" xmlns="http://www.w3.org/2000/svg">
  <g transform="matrix(1 0 0 1 -1039 -646 )">
    <path d="M 19.2276041666667 22.8958333333333  C 19.2980902777778 23.0347222222222  19.3333333333333 23.1805555555556  19.3333333333333 23.3333333333333  C 19.3333333333333 23.5138888888889  19.2855034722222 23.6701388888889  19.18984375 23.8020833333333  C 19.0941840277778 23.9340277777778  18.9809027777778 24  18.85 24  L 4.35 24  C 4.26944444444444 24  4.20147569444444 23.9861111111111  4.14609375 23.9583333333333  C 4.09071180555556 23.9305555555556  4.04539930555556 23.8819444444444  4.01015625 23.8125  C 3.97491319444444 23.7430555555556  3.94722222222222 23.6875  3.92708333333333 23.6458333333333  C 3.90694444444445 23.6041666666667  3.89184027777778 23.5243055555556  3.88177083333333 23.40625  C 3.87170138888889 23.2881944444444  3.86666666666667 23.2083333333333  3.86666666666667 23.1666666666667  L 3.86666666666667 22.8958333333333  L 3.86666666666667 22.6666666666667  L 3.86666666666667 19.3333333333333  L 3.86666666666667 10.6666666666667  L 0.966666666666667 10.6666666666667  C 0.704861111111111 10.6666666666667  0.478298611111111 10.5347222222222  0.286979166666667 10.2708333333333  C 0.0956597222222222 10.0069444444444  0 9.69444444444444  0 9.33333333333333  C 0 9  0.0755208333333333 8.71527777777778  0.2265625 8.47916666666667  L 5.05989583333333 0.479166666666667  C 5.25121527777778 0.173611111111111  5.49791666666667 0.0208333333333339  5.8 0.0208333333333339  C 6.10208333333333 0.0208333333333339  6.34878472222222 0.173611111111111  6.54010416666667 0.479166666666667  L 11.3734375 8.47916666666667  C 11.5244791666667 8.71527777777778  11.6 9  11.6 9.33333333333333  C 11.6 9.69444444444444  11.5043402777778 10.0069444444444  11.3130208333333 10.2708333333333  C 11.1217013888889 10.5347222222222  10.8951388888889 10.6666666666667  10.6333333333333 10.6666666666667  L 7.73333333333333 10.6666666666667  L 7.73333333333333 18.6666666666667  L 16.4333333333333 18.6666666666667  C 16.5944444444444 18.6666666666667  16.7203125 18.7430555555556  16.8109375 18.8958333333333  L 19.2276041666667 22.8958333333333  Z M 28.7130208333333 13.7291666666667  C 28.9043402777778 13.9930555555556  29 14.3055555555556  29 14.6666666666667  C 29 15  28.9244791666667 15.2847222222222  28.7734375 15.5208333333333  L 23.9401041666667 23.5208333333333  C 23.7387152777778 23.8402777777778  23.4920138888889 24  23.2 24  C 22.9079861111111 24  22.6612847222222 23.8402777777778  22.4598958333333 23.5208333333333  L 17.6265625 15.5208333333333  C 17.4755208333333 15.2847222222222  17.4 15  17.4 14.6666666666667  C 17.4 14.3055555555556  17.4956597222222 13.9930555555556  17.6869791666667 13.7291666666667  C 17.8782986111111 13.4652777777778  18.1048611111111 13.3333333333333  18.3666666666667 13.3333333333333  L 21.2666666666667 13.3333333333333  L 21.2666666666667 5.33333333333333  L 12.5666666666667 5.33333333333333  C 12.4055555555556 5.33333333333333  12.2796875 5.25  12.1890625 5.08333333333333  L 9.77239583333333 1.08333333333333  C 9.70190972222222 0.958333333333334  9.66666666666667 0.819444444444444  9.66666666666667 0.666666666666667  C 9.66666666666667 0.486111111111109  9.71449652777778 0.32986111111111  9.81015625 0.197916666666667  C 9.90581597222222 0.0659722222222188  10.0190972222222 0  10.15 0  L 24.65 0  C 24.7305555555556 0  24.7985243055556 0.0138888888888866  24.85390625 0.0416666666666679  C 24.9092881944444 0.0694444444444438  24.9546006944444 0.118055555555554  24.98984375 0.1875  C 25.0250868055556 0.256944444444444  25.0527777777778 0.312500000000001  25.0729166666667 0.354166666666666  C 25.0930555555556 0.395833333333334  25.1081597222222 0.475694444444442  25.1182291666667 0.593750000000001  C 25.1282986111111 0.711805555555552  25.1333333333333 0.791666666666668  25.1333333333333 0.833333333333333  L 25.1333333333333 1.10416666666667  L 25.1333333333333 1.33333333333333  L 25.1333333333333 4.66666666666667  L 25.1333333333333 13.3333333333333  L 28.0333333333333 13.3333333333333  C 28.2951388888889 13.3333333333333  28.5217013888889 13.4652777777778  28.7130208333333 13.7291666666667  Z " fill-rule="nonzero" fill="#000000" stroke="none" transform="matrix(1 0 0 1 1039 646 )" />
  </g>
</svg>