<?xml version="1.0" encoding="utf-8"?>
<svg version="1.1" xmlns:xlink="http://www.w3.org/1999/xlink" width="28px" height="26px" xmlns="http://www.w3.org/2000/svg">
  <g transform="matrix(1 0 0 1 -862 -646 )">
    <path d="M 17.2994791666667 16.0638020833333  C 18.2109375 15.2174479166667  18.6666666666667 14.1961805555556  18.6666666666667 13  C 18.6666666666667 11.8038194444444  18.2109375 10.7825520833333  17.2994791666667 9.93619791666667  C 16.3880208333333 9.08984375  15.2881944444444 8.66666666666667  14 8.66666666666667  C 12.7118055555556 8.66666666666667  11.6119791666667 9.08984375  10.7005208333333 9.93619791666667  C 9.7890625 10.7825520833333  9.33333333333333 11.8038194444444  9.33333333333333 13  C 9.33333333333333 14.1961805555556  9.7890625 15.2174479166667  10.7005208333333 16.0638020833333  C 11.6119791666667 16.91015625  12.7118055555556 17.3333333333333  14 17.3333333333333  C 15.2881944444444 17.3333333333333  16.3880208333333 16.91015625  17.2994791666667 16.0638020833333  Z M 27.8541666666667 10.7571614583333  C 27.9513888888889 10.8756510416667  28 11.0082465277778  28 11.1549479166667  L 28 14.9127604166667  C 28 15.0481770833333  27.9513888888889 15.1779513888889  27.8541666666667 15.3020833333333  C 27.7569444444444 15.4262152777778  27.6354166666667 15.4995659722222  27.4895833333333 15.5221354166667  L 24.1171875 15.99609375  C 23.8862847222222 16.60546875  23.6493055555556 17.1189236111111  23.40625 17.5364583333333  C 23.8315972222222 18.1006944444444  24.4817708333333 18.8793402777778  25.3567708333333 19.8723958333333  C 25.4782986111111 20.0078125  25.5390625 20.1488715277778  25.5390625 20.2955729166667  C 25.5390625 20.4422743055556  25.484375 20.5720486111111  25.375 20.6848958333333  C 25.046875 21.1024305555556  24.4453125 21.7118055555556  23.5703125 22.5130208333333  C 22.6953125 23.3142361111111  22.1241319444444 23.71484375  21.8567708333333 23.71484375  C 21.7109375 23.71484375  21.5529513888889 23.6640625  21.3828125 23.5625  L 18.8671875 21.734375  C 18.3324652777778 21.9939236111111  17.7795138888889 22.2083333333333  17.2083333333333 22.3776041666667  C 17.0138888888889 23.9123263888889  16.8376736111111 24.9618055555556  16.6796875 25.5260416666667  C 16.5946180555556 25.8420138888889  16.3758680555556 26  16.0234375 26  L 11.9765625 26  C 11.8064236111111 26  11.6575520833333 25.9520399305556  11.5299479166667 25.8561197916667  C 11.40234375 25.7601996527778  11.3324652777778 25.6388888888889  11.3203125 25.4921875  L 10.8098958333333 22.3776041666667  C 10.2144097222222 22.1970486111111  9.66753472222222 21.98828125  9.16927083333333 21.7513020833333  L 6.59895833333333 23.5625  C 6.47743055555556 23.6640625  6.32552083333333 23.71484375  6.14322916666667 23.71484375  C 5.97309027777778 23.71484375  5.82118055555556 23.6527777777778  5.6875 23.5286458333333  C 4.15625 22.2421875  3.15364583333333 21.2942708333333  2.6796875 20.6848958333333  C 2.59461805555556 20.5720486111111  2.55208333333333 20.4422743055556  2.55208333333333 20.2955729166667  C 2.55208333333333 20.16015625  2.60069444444445 20.0303819444444  2.69791666666667 19.90625  C 2.88020833333333 19.6692708333333  3.19010416666667 19.2940538194444  3.62760416666667 18.7805989583333  C 4.06510416666667 18.2671440972222  4.39322916666667 17.8693576388889  4.61197916666667 17.5872395833333  C 4.28385416666667 17.0230034722222  4.03472222222222 16.4644097222222  3.86458333333333 15.9114583333333  L 0.528645833333333 15.4544270833333  C 0.370659722222222 15.4318576388889  0.243055555555556 15.361328125  0.145833333333333 15.2428385416667  C 0.0486111111111111 15.1243489583333  0 14.9917534722222  0 14.8450520833333  L 0 11.0872395833333  C 0 10.9518229166667  0.0486111111111111 10.8220486111111  0.145833333333333 10.6979166666667  C 0.243055555555556 10.5737847222222  0.358506944444444 10.5004340277778  0.4921875 10.4778645833333  L 3.8828125 10.00390625  C 4.05295138888889 9.48480902777778  4.28993055555556 8.96571180555556  4.59375 8.44661458333333  C 4.10763888888889 7.80338541666667  3.45746527777778 7.02473958333333  2.64322916666667 6.11067708333333  C 2.52170138888889 5.97526041666667  2.4609375 5.83984375  2.4609375 5.70442708333333  C 2.4609375 5.59157986111111  2.515625 5.46180555555555  2.625 5.31510416666667  C 2.94097222222222 4.90885416666667  3.53949652777778 4.30230034722222  4.42057291666667 3.49544270833333  C 5.30164930555556 2.68858506944444  5.87586805555556 2.28515625  6.14322916666667 2.28515625  C 6.30121527777778 2.28515625  6.45920138888889 2.34157986111111  6.6171875 2.45442708333333  L 9.1328125 4.265625  C 9.66753472222222 4.00607638888889  10.2204861111111 3.79166666666667  10.7916666666667 3.62239583333333  C 10.9861111111111 2.08767361111111  11.1623263888889 1.03819444444444  11.3203125 0.473958333333332  C 11.4053819444444 0.15798611111111  11.6241319444444 0  11.9765625 0  L 16.0234375 0  C 16.1935763888889 0  16.3424479166667 0.0479600694444422  16.4700520833333 0.143880208333332  C 16.59765625 0.23980034722222  16.6675347222222 0.36111111111111  16.6796875 0.5078125  L 17.1901041666667 3.62239583333333  C 17.7855902777778 3.80295138888889  18.3324652777778 4.01171875  18.8307291666667 4.24869791666667  L 21.4192708333333 2.4375  C 21.5286458333333 2.3359375  21.6744791666667 2.28515625  21.8567708333333 2.28515625  C 22.0147569444444 2.28515625  22.1666666666667 2.34157986111111  22.3125 2.45442708333333  C 23.8802083333333 3.79730902777778  24.8828125 4.75651041666667  25.3203125 5.33203125  C 25.4053819444444 5.42230902777778  25.4479166666667 5.54644097222222  25.4479166666667 5.70442708333333  C 25.4479166666667 5.83984375  25.3993055555556 5.96961805555555  25.3020833333333 6.09375  C 25.1197916666667 6.33072916666667  24.8098958333333 6.70594618055555  24.3723958333333 7.21940104166667  C 23.9348958333333 7.73285590277778  23.6067708333333 8.13064236111111  23.3880208333333 8.41276041666667  C 23.7039930555556 8.97699652777778  23.953125 9.52994791666666  24.1354166666667 10.0716145833333  L 27.4713541666667 10.5455729166667  C 27.6293402777778 10.5681423611111  27.7569444444444 10.638671875  27.8541666666667 10.7571614583333  Z " fill-rule="nonzero" fill="#000000" stroke="none" transform="matrix(1 0 0 1 862 646 )" />
  </g>
</svg>