<?xml version="1.0" encoding="utf-8"?>
<svg version="1.1" xmlns:xlink="http://www.w3.org/1999/xlink" width="29px" height="26px" xmlns="http://www.w3.org/2000/svg">
  <g transform="matrix(1 0 0 1 -643 -586 )">
    <path d="M 2.07142857142857 21  L 2.07142857142857 23.6363636363636  L 18.6428571428571 23.6363636363636  L 18.6428571428571 21  L 2.07142857142857 21  Z M 2.07142857142857 12  L 2.07142857142857 14  L 18.6428571428571 14  L 18.6428571428571 12  L 2.07142857142857 12  Z M 26.9933035714286 23.7102272727273  C 27.2953869047619 23.3655303030303  27.4464285714286 22.9469696969697  27.4464285714286 22.4545454545455  C 27.4464285714286 21.9621212121212  27.2953869047619 21.5435606060606  26.9933035714286 21.1988636363636  C 26.6912202380952 20.8541666666667  26.3244047619048 20.6818181818182  25.8928571428571 20.6818181818182  C 25.4613095238095 20.6818181818182  25.0944940476191 20.8541666666667  24.7924107142857 21.1988636363636  C 24.4903273809524 21.5435606060606  24.3392857142857 21.9621212121212  24.3392857142857 22.4545454545455  C 24.3392857142857 22.9469696969697  24.4903273809524 23.3655303030303  24.7924107142857 23.7102272727273  C 25.0944940476191 24.0549242424242  25.4613095238095 24.2272727272727  25.8928571428571 24.2272727272727  C 26.3244047619048 24.2272727272727  26.6912202380952 24.0549242424242  26.9933035714286 23.7102272727273  Z M 2.07142857142857 2.36363636363636  L 2.07142857142857 5  L 18.6428571428571 5  L 18.6428571428571 2.36363636363636  L 2.07142857142857 2.36363636363636  Z M 26.9933035714286 14.2556818181818  C 27.2953869047619 13.9109848484848  27.4464285714286 13.4924242424242  27.4464285714286 13  C 27.4464285714286 12.5075757575758  27.2953869047619 12.0890151515152  26.9933035714286 11.7443181818182  C 26.6912202380952 11.3996212121212  26.3244047619048 11.2272727272727  25.8928571428571 11.2272727272727  C 25.4613095238095 11.2272727272727  25.0944940476191 11.3996212121212  24.7924107142857 11.7443181818182  C 24.4903273809524 12.0890151515152  24.3392857142857 12.5075757575758  24.3392857142857 13  C 24.3392857142857 13.4924242424242  24.4903273809524 13.9109848484848  24.7924107142857 14.2556818181818  C 25.0944940476191 14.6003787878788  25.4613095238095 14.7727272727273  25.8928571428571 14.7727272727273  C 26.3244047619048 14.7727272727273  26.6912202380952 14.6003787878788  26.9933035714286 14.2556818181818  Z M 26.9933035714286 4.80113636363636  C 27.2953869047619 4.45643939393939  27.4464285714286 4.03787878787878  27.4464285714286 3.54545454545455  C 27.4464285714286 3.0530303030303  27.2953869047619 2.63446969696969  26.9933035714286 2.28977272727273  C 26.6912202380952 1.94507575757576  26.3244047619048 1.77272727272727  25.8928571428571 1.77272727272727  C 25.4613095238095 1.77272727272727  25.0944940476191 1.94507575757576  24.7924107142857 2.28977272727273  C 24.4903273809524 2.63446969696969  24.3392857142857 3.0530303030303  24.3392857142857 3.54545454545455  C 24.3392857142857 4.03787878787878  24.4903273809524 4.45643939393939  24.7924107142857 4.80113636363636  C 25.0944940476191 5.14583333333333  25.4613095238095 5.31818181818182  25.8928571428571 5.31818181818182  C 26.3244047619048 5.31818181818182  26.6912202380952 5.14583333333333  26.9933035714286 4.80113636363636  Z M 0 19  L 29 19  L 29 26  L 0 26  L 0 19  Z M 0 9.45454545454546  L 29 9.45454545454546  L 29 16.5454545454545  L 0 16.5454545454545  L 0 9.45454545454546  Z M 0 0  L 29 0  L 29 7  L 0 7  L 0 0  Z " fill-rule="nonzero" fill="#1e1e1e" stroke="none" transform="matrix(1 0 0 1 643 586 )" />
  </g>
</svg>